<svg xmlns="http://www.w3.org/2000/svg" xmlns:xlink="http://www.w3.org/1999/xlink" version="1.1" class="marks" width="720" height="720" viewBox="0 0 720 720"><rect width="720" height="720" fill="white"/><g fill="none" stroke-miterlimit="10" transform="translate(85,185)"><g class="mark-group role-frame root" role="graphics-object" aria-roledescription="group mark container"><g transform="translate(0,0)"><path class="background" aria-hidden="true" d="M0,0h550v350h-550Z"/><g><g class="mark-arc role-mark layer_0_marks" role="graphics-object" aria-roledescription="arc mark container"><path aria-label="monthnum: 0; sunshine: 4.3548387097" role="graphics-symbol" aria-roledescription="arc mark" transform="translate(275,175)" d="M5.333139286637095e-15,-87.096774194A87.096774194,87.096774194,0,0,1,43.548387096999996,-75.42801903968093L0,0Z" fill="gold" stroke="black" stroke-opacity="1" stroke-width="2" opacity="0.6"/><path aria-label="monthnum: 1; sunshine: 4.8571428571" role="graphics-symbol" aria-roledescription="arc mark" transform="translate(275,175)" d="M48.57142857099999,-84.12818208117459A97.142857142,97.142857142,0,0,1,84.12818208117459,-48.571428571L0,0Z" fill="gold" stroke="black" stroke-opacity="1" stroke-width="2" opacity="0.6"/><path aria-label="monthnum: 2; sunshine: 6.0322580645" role="graphics-symbol" aria-roledescription="arc mark" transform="translate(275,175)" d="M104.48177452081096,-60.322580644999995A120.64516128999999,120.64516128999999,0,0,1,120.64516128999999,0L0,0Z" fill="gold" stroke="black" stroke-opacity="1" stroke-width="2" opacity="0.6"/><path aria-label="monthnum: 3; sunshine: 7.1666666667" role="graphics-symbol" aria-roledescription="arc mark" transform="translate(275,175)" d="M143.333333334,0A143.333333334,143.333333334,0,0,1,124.1303078763469,71.66666666699997L0,0Z" fill="gold" stroke="black" stroke-opacity="1" stroke-width="2" opacity="0.6"/><path aria-label="monthnum: 4; sunshine: 9.064516129" role="graphics-symbol" aria-roledescription="arc mark" transform="translate(275,175)" d="M157.00202481455565,90.64516128999998A181.29032258,181.29032258,0,0,1,90.64516129000006,157.00202481455563L0,0Z" fill="gold" stroke="black" stroke-opacity="1" stroke-width="2" opacity="0.6"/><path aria-label="monthnum: 5; sunshine: 10.3666666667" role="graphics-symbol" aria-roledescription="arc mark" transform="translate(275,175)" d="M103.66666666700007,179.55593371855093A207.333333334,207.333333334,0,0,1,1.0477000132707743e-13,207.333333334L0,0Z" fill="gold" stroke="black" stroke-opacity="1" stroke-width="2" opacity="0.6"/><path aria-label="monthnum: 6; sunshine: 10.2580645161" role="graphics-symbol" aria-roledescription="arc mark" transform="translate(275,175)" d="M1.2562505875088906e-14,205.16129032199999A205.16129032199999,205.16129032199999,0,0,1,-102.58064516099995,177.67488929204652L0,0Z" fill="gold" stroke="black" stroke-opacity="1" stroke-width="2" opacity="0.6"/><path aria-label="monthnum: 7; sunshine: 9.1290322581" role="graphics-symbol" aria-roledescription="arc mark" transform="translate(275,175)" d="M-91.29032258099997,158.11947694964442A182.58064516200002,182.58064516200002,0,0,1,-158.11947694964437,91.29032258100007L0,0Z" fill="gold" stroke="black" stroke-opacity="1" stroke-width="2" opacity="0.6"/><path aria-label="monthnum: 8; sunshine: 7.5333333333" role="graphics-symbol" aria-roledescription="arc mark" transform="translate(275,175)" d="M-130.48116083627804,75.33333333300006A150.666666666,150.666666666,0,0,1,-150.666666666,1.845134510707181e-14L0,0Z" fill="gold" stroke="black" stroke-opacity="1" stroke-width="2" opacity="0.6"/><path aria-label="monthnum: 9; sunshine: 6.2258064516" role="graphics-symbol" aria-roledescription="arc mark" transform="translate(275,175)" d="M-124.516129032,1.524882788612576e-14A124.516129032,124.516129032,0,0,1,-107.83413092261306,-62.25806451600001L0,0Z" fill="gold" stroke="black" stroke-opacity="1" stroke-width="2" opacity="0.6"/><path aria-label="monthnum: 10; sunshine: 3.7666666667" role="graphics-symbol" aria-roledescription="arc mark" transform="translate(275,175)" d="M-65.2405804190051,-37.66666666699996A75.333333334,75.333333334,0,0,1,-37.66666666700004,-65.24058041900504L0,0Z" fill="gold" stroke="black" stroke-opacity="1" stroke-width="2" opacity="0.6"/><path aria-label="monthnum: 11; sunshine: 3.4193548387" role="graphics-symbol" aria-roledescription="arc mark" transform="translate(275,175)" d="M-34.19354838700003,-59.22496309734881A68.387096774,68.387096774,0,0,1,-1.2562505875088906e-14,-68.387096774L0,0Z" fill="gold" stroke="black" stroke-opacity="1" stroke-width="2" opacity="0.6"/></g><g class="mark-arc role-mark layer_1_marks" role="graphics-object" aria-roledescription="arc mark container"><path aria-label="monthnum: 0; seattle_sun: 2.2258064516" role="graphics-symbol" aria-roledescription="arc mark" transform="translate(275,175)" d="M2.7258267464734677e-15,-44.516129031999995A44.516129031999995,44.516129031999995,0,0,1,22.258064515999994,-38.55209861985797L0,0Z" stroke="purple" stroke-opacity="1" stroke-width="3" opacity="1"/><path aria-label="monthnum: 1; seattle_sun: 3.8571428571" role="graphics-symbol" aria-roledescription="arc mark" transform="translate(275,175)" d="M38.57142857099999,-66.80767400548582A77.142857142,77.142857142,0,0,1,66.80767400548581,-38.571428571L0,0Z" stroke="purple" stroke-opacity="1" stroke-width="3" opacity="1"/><path aria-label="monthnum: 2; seattle_sun: 5.7419354839" role="graphics-symbol" aria-roledescription="arc mark" transform="translate(275,175)" d="M99.45323991897386,-57.419354839A114.838709678,114.838709678,0,0,1,114.838709678,0L0,0Z" stroke="purple" stroke-opacity="1" stroke-width="3" opacity="1"/><path aria-label="monthnum: 3; seattle_sun: 6.9" role="graphics-symbol" aria-roledescription="arc mark" transform="translate(275,175)" d="M138.00000000000003,0A138.00000000000003,138.00000000000003,0,0,1,119.51150572225256,68.99999999999999L0,0Z" stroke="purple" stroke-opacity="1" stroke-width="3" opacity="1"/><path aria-label="monthnum: 4; seattle_sun: 8.1612903226" role="graphics-symbol" aria-roledescription="arc mark" transform="translate(275,175)" d="M141.35769494063393,81.61290322599997A163.225806452,163.225806452,0,0,1,81.61290322600006,141.3576949406339L0,0Z" stroke="purple" stroke-opacity="1" stroke-width="3" opacity="1"/><path aria-label="monthnum: 5; seattle_sun: 8.9333333333" role="graphics-symbol" aria-roledescription="arc mark" transform="translate(275,175)" d="M89.33333333300006,154.72987214224233A178.666666666,178.666666666,0,0,1,9.028411689859066e-14,178.666666666L0,0Z" stroke="purple" stroke-opacity="1" stroke-width="3" opacity="1"/><path aria-label="monthnum: 6; seattle_sun: 10.064516129" role="graphics-symbol" aria-roledescription="arc mark" transform="translate(275,175)" d="M1.2325477462346758e-14,201.29032257999998A201.29032257999998,201.29032257999998,0,0,1,-100.64516128999995,174.32253289024442L0,0Z" stroke="purple" stroke-opacity="1" stroke-width="3" opacity="1"/><path aria-label="monthnum: 7; seattle_sun: 9.064516129" role="graphics-symbol" aria-roledescription="arc mark" transform="translate(275,175)" d="M-90.64516128999996,157.00202481455568A181.29032258,181.29032258,0,0,1,-157.00202481455563,90.64516129000006L0,0Z" stroke="purple" stroke-opacity="1" stroke-width="3" opacity="1"/><path aria-label="monthnum: 8; seattle_sun: 7.3666666667" role="graphics-symbol" aria-roledescription="arc mark" transform="translate(275,175)" d="M-127.5944094914846,73.66666666700003A147.33333333399997,147.33333333399997,0,0,1,-147.33333333399997,1.804312950751931e-14L0,0Z" stroke="purple" stroke-opacity="1" stroke-width="3" opacity="1"/><path aria-label="monthnum: 9; seattle_sun: 4.5806451613" role="graphics-symbol" aria-roledescription="arc mark" transform="translate(275,175)" d="M-91.61290322599999,1.121934486963171e-14A91.61290322599999,91.61290322599999,0,0,1,-79.33910150816133,-45.806451613L0,0Z" stroke="purple" stroke-opacity="1" stroke-width="3" opacity="1"/><path aria-label="monthnum: 10; seattle_sun: 2.4" role="graphics-symbol" aria-roledescription="arc mark" transform="translate(275,175)" d="M-41.56921938165307,-23.999999999999968A47.99999999999999,47.99999999999999,0,0,1,-24.000000000000018,-41.569219381653035L0,0Z" stroke="purple" stroke-opacity="1" stroke-width="3" opacity="1"/><path aria-label="monthnum: 11; seattle_sun: 1.6774193548" role="graphics-symbol" aria-roledescription="arc mark" transform="translate(275,175)" d="M-16.774193548000017,-29.053755481130047A33.548387096000006,33.548387096000006,0,0,1,-6.162738731050916e-15,-33.548387096000006L0,0Z" stroke="purple" stroke-opacity="1" stroke-width="3" opacity="1"/></g><g class="mark-arc role-mark layer_2_marks" role="graphics-object" aria-roledescription="arc mark container"><path aria-label="monthnum: 0" role="graphics-symbol" aria-roledescription="arc mark" transform="translate(275,175)" d="M7.34788079488412e-15,-120A120,120,0,0,1,59.99999999999999,-103.92304845413264L29.999999999999996,-51.96152422706632A60,60,0,0,0,3.67394039744206e-15,-60Z" stroke="gray" stroke-opacity="0.4" stroke-width="1" stroke-dasharray="5,10"/><path aria-label="monthnum: 1" role="graphics-symbol" aria-roledescription="arc mark" transform="translate(275,175)" d="M59.99999999999999,-103.92304845413264A120,120,0,0,1,103.92304845413263,-60L51.96152422706631,-30A60,60,0,0,0,29.999999999999996,-51.96152422706632Z" stroke="gray" stroke-opacity="0.4" stroke-width="1" stroke-dasharray="5,10"/><path aria-label="monthnum: 2" role="graphics-symbol" aria-roledescription="arc mark" transform="translate(275,175)" d="M103.92304845413263,-60A120,120,0,0,1,120,0L60,0A60,60,0,0,0,51.96152422706631,-30Z" stroke="gray" stroke-opacity="0.4" stroke-width="1" stroke-dasharray="5,10"/><path aria-label="monthnum: 3" role="graphics-symbol" aria-roledescription="arc mark" transform="translate(275,175)" d="M120,0A120,120,0,0,1,103.92304845413264,59.99999999999998L51.96152422706632,29.99999999999999A60,60,0,0,0,60,0Z" stroke="gray" stroke-opacity="0.4" stroke-width="1" stroke-dasharray="5,10"/><path aria-label="monthnum: 4" role="graphics-symbol" aria-roledescription="arc mark" transform="translate(275,175)" d="M103.92304845413264,59.99999999999998A120,120,0,0,1,60.00000000000004,103.92304845413261L30.00000000000002,51.961524227066306A60,60,0,0,0,51.96152422706632,29.99999999999999Z" stroke="gray" stroke-opacity="0.4" stroke-width="1" stroke-dasharray="5,10"/><path aria-label="monthnum: 5" role="graphics-symbol" aria-roledescription="arc mark" transform="translate(275,175)" d="M60.00000000000004,103.92304845413261A120,120,0,0,1,6.063858597689164e-14,120L3.031929298844582e-14,60A60,60,0,0,0,30.00000000000002,51.961524227066306Z" stroke="gray" stroke-opacity="0.4" stroke-width="1" stroke-dasharray="5,10"/><path aria-label="monthnum: 6" role="graphics-symbol" aria-roledescription="arc mark" transform="translate(275,175)" d="M7.34788079488412e-15,120A120,120,0,0,1,-59.99999999999997,103.92304845413265L-29.999999999999986,51.96152422706633A60,60,0,0,0,3.67394039744206e-15,60Z" stroke="gray" stroke-opacity="0.4" stroke-width="1" stroke-dasharray="5,10"/><path aria-label="monthnum: 7" role="graphics-symbol" aria-roledescription="arc mark" transform="translate(275,175)" d="M-59.99999999999997,103.92304845413265A120,120,0,0,1,-103.92304845413261,60.00000000000004L-51.961524227066306,30.00000000000002A60,60,0,0,0,-29.999999999999986,51.96152422706633Z" stroke="gray" stroke-opacity="0.4" stroke-width="1" stroke-dasharray="5,10"/><path aria-label="monthnum: 8" role="graphics-symbol" aria-roledescription="arc mark" transform="translate(275,175)" d="M-103.92304845413261,60.00000000000004A120,120,0,0,1,-120,1.469576158976824e-14L-60,7.34788079488412e-15A60,60,0,0,0,-51.961524227066306,30.00000000000002Z" stroke="gray" stroke-opacity="0.4" stroke-width="1" stroke-dasharray="5,10"/><path aria-label="monthnum: 9" role="graphics-symbol" aria-roledescription="arc mark" transform="translate(275,175)" d="M-120,1.469576158976824e-14A120,120,0,0,1,-103.92304845413263,-60.000000000000014L-51.96152422706631,-30.000000000000007A60,60,0,0,0,-60,7.34788079488412e-15Z" stroke="gray" stroke-opacity="0.4" stroke-width="1" stroke-dasharray="5,10"/><path aria-label="monthnum: 10" role="graphics-symbol" aria-roledescription="arc mark" transform="translate(275,175)" d="M-103.92304845413268,-59.99999999999993A120,120,0,0,1,-60.00000000000006,-103.92304845413261L-30.00000000000003,-51.961524227066306A60,60,0,0,0,-51.96152422706634,-29.999999999999964Z" stroke="gray" stroke-opacity="0.4" stroke-width="1" stroke-dasharray="5,10"/><path aria-label="monthnum: 11" role="graphics-symbol" aria-roledescription="arc mark" transform="translate(275,175)" d="M-60.00000000000006,-103.92304845413261A120,120,0,0,1,-2.2043642384652355e-14,-120L-1.1021821192326178e-14,-60A60,60,0,0,0,-30.00000000000003,-51.961524227066306Z" stroke="gray" stroke-opacity="0.4" stroke-width="1" stroke-dasharray="5,10"/></g><g class="mark-arc role-mark layer_3_marks" role="graphics-object" aria-roledescription="arc mark container"><path aria-label="monthnum: 0" role="graphics-symbol" aria-roledescription="arc mark" transform="translate(275,175)" d="M1.1021821192326179e-14,-180A180,180,0,0,1,89.99999999999999,-155.88457268119896L59.99999999999999,-103.92304845413264A120,120,0,0,0,7.34788079488412e-15,-120Z" stroke="gray" stroke-opacity="0.4" stroke-width="1" stroke-dasharray="5,10"/><path aria-label="monthnum: 1" role="graphics-symbol" aria-roledescription="arc mark" transform="translate(275,175)" d="M89.99999999999999,-155.88457268119896A180,180,0,0,1,155.88457268119896,-90L103.92304845413263,-60A120,120,0,0,0,59.99999999999999,-103.92304845413264Z" stroke="gray" stroke-opacity="0.4" stroke-width="1" stroke-dasharray="5,10"/><path aria-label="monthnum: 2" role="graphics-symbol" aria-roledescription="arc mark" transform="translate(275,175)" d="M155.88457268119896,-90A180,180,0,0,1,180,0L120,0A120,120,0,0,0,103.92304845413263,-60Z" stroke="gray" stroke-opacity="0.4" stroke-width="1" stroke-dasharray="5,10"/><path aria-label="monthnum: 3" role="graphics-symbol" aria-roledescription="arc mark" transform="translate(275,175)" d="M180,0A180,180,0,0,1,155.88457268119896,89.99999999999997L103.92304845413264,59.99999999999998A120,120,0,0,0,120,0Z" stroke="gray" stroke-opacity="0.4" stroke-width="1" stroke-dasharray="5,10"/><path aria-label="monthnum: 4" role="graphics-symbol" aria-roledescription="arc mark" transform="translate(275,175)" d="M155.88457268119896,89.99999999999997A180,180,0,0,1,90.00000000000006,155.88457268119893L60.00000000000004,103.92304845413261A120,120,0,0,0,103.92304845413264,59.99999999999998Z" stroke="gray" stroke-opacity="0.4" stroke-width="1" stroke-dasharray="5,10"/><path aria-label="monthnum: 5" role="graphics-symbol" aria-roledescription="arc mark" transform="translate(275,175)" d="M90.00000000000006,155.88457268119893A180,180,0,0,1,9.095787896533745e-14,180L6.063858597689164e-14,120A120,120,0,0,0,60.00000000000004,103.92304845413261Z" stroke="gray" stroke-opacity="0.4" stroke-width="1" stroke-dasharray="5,10"/><path aria-label="monthnum: 6" role="graphics-symbol" aria-roledescription="arc mark" transform="translate(275,175)" d="M1.1021821192326179e-14,180A180,180,0,0,1,-89.99999999999996,155.884572681199L-59.99999999999997,103.92304845413265A120,120,0,0,0,7.34788079488412e-15,120Z" stroke="gray" stroke-opacity="0.4" stroke-width="1" stroke-dasharray="5,10"/><path aria-label="monthnum: 7" role="graphics-symbol" aria-roledescription="arc mark" transform="translate(275,175)" d="M-89.99999999999996,155.884572681199A180,180,0,0,1,-155.88457268119893,90.00000000000006L-103.92304845413261,60.00000000000004A120,120,0,0,0,-59.99999999999997,103.92304845413265Z" stroke="gray" stroke-opacity="0.4" stroke-width="1" stroke-dasharray="5,10"/><path aria-label="monthnum: 8" role="graphics-symbol" aria-roledescription="arc mark" transform="translate(275,175)" d="M-155.88457268119893,90.00000000000006A180,180,0,0,1,-180,2.2043642384652358e-14L-120,1.469576158976824e-14A120,120,0,0,0,-103.92304845413261,60.00000000000004Z" stroke="gray" stroke-opacity="0.4" stroke-width="1" stroke-dasharray="5,10"/><path aria-label="monthnum: 9" role="graphics-symbol" aria-roledescription="arc mark" transform="translate(275,175)" d="M-180,2.2043642384652358e-14A180,180,0,0,1,-155.88457268119896,-90.00000000000001L-103.92304845413263,-60.000000000000014A120,120,0,0,0,-120,1.469576158976824e-14Z" stroke="gray" stroke-opacity="0.4" stroke-width="1" stroke-dasharray="5,10"/><path aria-label="monthnum: 10" role="graphics-symbol" aria-roledescription="arc mark" transform="translate(275,175)" d="M-155.88457268119902,-89.99999999999989A180,180,0,0,1,-90.00000000000009,-155.8845726811989L-60.00000000000006,-103.92304845413261A120,120,0,0,0,-103.92304845413268,-59.99999999999993Z" stroke="gray" stroke-opacity="0.4" stroke-width="1" stroke-dasharray="5,10"/><path aria-label="monthnum: 11" role="graphics-symbol" aria-roledescription="arc mark" transform="translate(275,175)" d="M-90.00000000000009,-155.8845726811989A180,180,0,0,1,-3.3065463576978534e-14,-180L-2.2043642384652355e-14,-120A120,120,0,0,0,-60.00000000000006,-103.92304845413261Z" stroke="gray" stroke-opacity="0.4" stroke-width="1" stroke-dasharray="5,10"/></g><g class="mark-arc role-mark layer_4_marks" role="graphics-object" aria-roledescription="arc mark container"><path aria-label="monthnum: 0" role="graphics-symbol" aria-roledescription="arc mark" transform="translate(275,175)" d="M1.469576158976824e-14,-240A240,240,0,0,1,119.99999999999999,-207.84609690826528L89.99999999999999,-155.88457268119896A180,180,0,0,0,1.1021821192326179e-14,-180Z" stroke="gray" stroke-opacity="0.4" stroke-width="1" stroke-dasharray="5,10"/><path aria-label="monthnum: 1" role="graphics-symbol" aria-roledescription="arc mark" transform="translate(275,175)" d="M119.99999999999999,-207.84609690826528A240,240,0,0,1,207.84609690826525,-120L155.88457268119896,-90A180,180,0,0,0,89.99999999999999,-155.88457268119896Z" stroke="gray" stroke-opacity="0.4" stroke-width="1" stroke-dasharray="5,10"/><path aria-label="monthnum: 2" role="graphics-symbol" aria-roledescription="arc mark" transform="translate(275,175)" d="M207.84609690826525,-120A240,240,0,0,1,240,0L180,0A180,180,0,0,0,155.88457268119896,-90Z" stroke="gray" stroke-opacity="0.4" stroke-width="1" stroke-dasharray="5,10"/><path aria-label="monthnum: 3" role="graphics-symbol" aria-roledescription="arc mark" transform="translate(275,175)" d="M240,0A240,240,0,0,1,207.84609690826528,119.99999999999996L155.88457268119896,89.99999999999997A180,180,0,0,0,180,0Z" stroke="gray" stroke-opacity="0.4" stroke-width="1" stroke-dasharray="5,10"/><path aria-label="monthnum: 4" role="graphics-symbol" aria-roledescription="arc mark" transform="translate(275,175)" d="M207.84609690826528,119.99999999999996A240,240,0,0,1,120.00000000000009,207.84609690826522L90.00000000000006,155.88457268119893A180,180,0,0,0,155.88457268119896,89.99999999999997Z" stroke="gray" stroke-opacity="0.4" stroke-width="1" stroke-dasharray="5,10"/><path aria-label="monthnum: 5" role="graphics-symbol" aria-roledescription="arc mark" transform="translate(275,175)" d="M120.00000000000009,207.84609690826522A240,240,0,0,1,1.2127717195378327e-13,240L9.095787896533745e-14,180A180,180,0,0,0,90.00000000000006,155.88457268119893Z" stroke="gray" stroke-opacity="0.4" stroke-width="1" stroke-dasharray="5,10"/><path aria-label="monthnum: 6" role="graphics-symbol" aria-roledescription="arc mark" transform="translate(275,175)" d="M1.469576158976824e-14,240A240,240,0,0,1,-119.99999999999994,207.8460969082653L-89.99999999999996,155.884572681199A180,180,0,0,0,1.1021821192326179e-14,180Z" stroke="gray" stroke-opacity="0.4" stroke-width="1" stroke-dasharray="5,10"/><path aria-label="monthnum: 7" role="graphics-symbol" aria-roledescription="arc mark" transform="translate(275,175)" d="M-119.99999999999994,207.8460969082653A240,240,0,0,1,-207.84609690826522,120.00000000000009L-155.88457268119893,90.00000000000006A180,180,0,0,0,-89.99999999999996,155.884572681199Z" stroke="gray" stroke-opacity="0.4" stroke-width="1" stroke-dasharray="5,10"/><path aria-label="monthnum: 8" role="graphics-symbol" aria-roledescription="arc mark" transform="translate(275,175)" d="M-207.84609690826522,120.00000000000009A240,240,0,0,1,-240,2.939152317953648e-14L-180,2.2043642384652358e-14A180,180,0,0,0,-155.88457268119893,90.00000000000006Z" stroke="gray" stroke-opacity="0.4" stroke-width="1" stroke-dasharray="5,10"/><path aria-label="monthnum: 9" role="graphics-symbol" aria-roledescription="arc mark" transform="translate(275,175)" d="M-240,2.939152317953648e-14A240,240,0,0,1,-207.84609690826525,-120.00000000000003L-155.88457268119896,-90.00000000000001A180,180,0,0,0,-180,2.2043642384652358e-14Z" stroke="gray" stroke-opacity="0.4" stroke-width="1" stroke-dasharray="5,10"/><path aria-label="monthnum: 10" role="graphics-symbol" aria-roledescription="arc mark" transform="translate(275,175)" d="M-207.84609690826537,-119.99999999999986A240,240,0,0,1,-120.00000000000011,-207.84609690826522L-90.00000000000009,-155.8845726811989A180,180,0,0,0,-155.88457268119902,-89.99999999999989Z" stroke="gray" stroke-opacity="0.4" stroke-width="1" stroke-dasharray="5,10"/><path aria-label="monthnum: 11" role="graphics-symbol" aria-roledescription="arc mark" transform="translate(275,175)" d="M-120.00000000000011,-207.84609690826522A240,240,0,0,1,-4.408728476930471e-14,-240L-3.3065463576978534e-14,-180A180,180,0,0,0,-90.00000000000009,-155.8845726811989Z" stroke="gray" stroke-opacity="0.4" stroke-width="1" stroke-dasharray="5,10"/></g><g class="mark-arc role-mark layer_5_marks" role="graphics-object" aria-roledescription="arc mark container"><path aria-label="monthnum: 0; temp_bins: 0" role="graphics-symbol" aria-roledescription="arc mark" transform="translate(275,175)" d="M2.1431318985078682e-14,-350A350,350,0,0,1,174.99999999999997,-303.10889132455355L137.49999999999997,-238.15698604072065A275,275,0,0,0,1.6838893488276108e-14,-275Z" fill="#043687" stroke="#fff" stroke-width="5"/><path aria-label="monthnum: 1; temp_bins: 1" role="graphics-symbol" aria-roledescription="arc mark" transform="translate(275,175)" d="M174.99999999999997,-303.10889132455355A350,350,0,0,1,303.1088913245535,-175L238.15698604072062,-137.5A275,275,0,0,0,137.49999999999997,-238.15698604072065Z" fill="#719feb" stroke="#fff" stroke-width="5"/><path aria-label="monthnum: 2; temp_bins: 1" role="graphics-symbol" aria-roledescription="arc mark" transform="translate(275,175)" d="M303.1088913245535,-175A350,350,0,0,1,350,0L275,0A275,275,0,0,0,238.15698604072062,-137.5Z" fill="#719feb" stroke="#fff" stroke-width="5"/><path aria-label="monthnum: 3; temp_bins: 2" role="graphics-symbol" aria-roledescription="arc mark" transform="translate(275,175)" d="M350,0A350,350,0,0,1,303.10889132455355,174.99999999999994L238.15698604072065,137.49999999999994A275,275,0,0,0,275,0Z" fill="#6eba80" stroke="#fff" stroke-width="5"/><path aria-label="monthnum: 4; temp_bins: 2" role="graphics-symbol" aria-roledescription="arc mark" transform="translate(275,175)" d="M303.10889132455355,174.99999999999994A350,350,0,0,1,175.0000000000001,303.1088913245535L137.50000000000009,238.1569860407206A275,275,0,0,0,238.15698604072065,137.49999999999994Z" fill="#6eba80" stroke="#fff" stroke-width="5"/><path aria-label="monthnum: 5; temp_bins: 3" role="graphics-symbol" aria-roledescription="arc mark" transform="translate(275,175)" d="M175.0000000000001,303.1088913245535A350,350,0,0,1,1.768625424326006e-13,350L1.3896342619704334e-13,275A275,275,0,0,0,137.50000000000009,238.1569860407206Z" fill="#f2ab27" stroke="#fff" stroke-width="5"/><path aria-label="monthnum: 6; temp_bins: 3" role="graphics-symbol" aria-roledescription="arc mark" transform="translate(275,175)" d="M2.1431318985078682e-14,350A350,350,0,0,1,-174.99999999999991,303.1088913245536L-137.49999999999994,238.15698604072068A275,275,0,0,0,1.6838893488276108e-14,275Z" fill="#f2ab27" stroke="#fff" stroke-width="5"/><path aria-label="monthnum: 7; temp_bins: 3" role="graphics-symbol" aria-roledescription="arc mark" transform="translate(275,175)" d="M-174.99999999999991,303.1088913245536A350,350,0,0,1,-303.1088913245535,175.0000000000001L-238.1569860407206,137.50000000000009A275,275,0,0,0,-137.49999999999994,238.15698604072068Z" fill="#f2ab27" stroke="#fff" stroke-width="5"/><path aria-label="monthnum: 8; temp_bins: 2" role="graphics-symbol" aria-roledescription="arc mark" transform="translate(275,175)" d="M-303.1088913245535,175.0000000000001A350,350,0,0,1,-350,4.2862637970157365e-14L-275,3.3677786976552216e-14A275,275,0,0,0,-238.1569860407206,137.50000000000009Z" fill="#6eba80" stroke="#fff" stroke-width="5"/><path aria-label="monthnum: 9; temp_bins: 2" role="graphics-symbol" aria-roledescription="arc mark" transform="translate(275,175)" d="M-350,4.2862637970157365e-14A350,350,0,0,1,-303.1088913245535,-175.00000000000003L-238.15698604072062,-137.50000000000003A275,275,0,0,0,-275,3.3677786976552216e-14Z" fill="#6eba80" stroke="#fff" stroke-width="5"/><path aria-label="monthnum: 10; temp_bins: 1" role="graphics-symbol" aria-roledescription="arc mark" transform="translate(275,175)" d="M-303.10889132455367,-174.99999999999977A350,350,0,0,1,-175.00000000000014,-303.10889132455344L-137.5000000000001,-238.15698604072054A275,275,0,0,0,-238.15698604072074,-137.49999999999983Z" fill="#719feb" stroke="#fff" stroke-width="5"/><path aria-label="monthnum: 11; temp_bins: 1" role="graphics-symbol" aria-roledescription="arc mark" transform="translate(275,175)" d="M-175.00000000000014,-303.10889132455344A350,350,0,0,1,-6.429395695523604e-14,-350L-5.051668046482832e-14,-275A275,275,0,0,0,-137.5000000000001,-238.15698604072054Z" fill="#719feb" stroke="#fff" stroke-width="5"/></g></g><path class="foreground" aria-hidden="true" d="" display="none"/></g></g></g></svg>