<?xml version="1.0" encoding="utf-8"?>
<!-- Generator: Adobe Illustrator 25.2.1, SVG Export Plug-In . SVG Version: 6.00 Build 0)  -->
<svg version="1.1" id="Layer_1" xmlns="http://www.w3.org/2000/svg" xmlns:xlink="http://www.w3.org/1999/xlink" x="0px" y="0px"
	 viewBox="0 0 720 720" style="enable-background:new 0 0 720 720;" xml:space="preserve">
<style type="text/css">
	.st0{fill:none;}
	.st1{opacity:0.6;fill:#FFD700;stroke:#000000;stroke-width:2;stroke-miterlimit:10;enable-background:new    ;}
	.st2{fill:none;stroke:#800080;stroke-width:3;stroke-miterlimit:10;}
	.st3{fill:none;stroke:#808080;stroke-miterlimit:10;stroke-opacity:0.4;stroke-dasharray:5,10;}
	.st4{fill:#6EBA80;stroke:#FFFFFF;stroke-width:5;stroke-miterlimit:10;}
	.st5{fill:#F2AB27;stroke:#FFFFFF;stroke-width:5;stroke-miterlimit:10;}
	.st6{fill:#B00C0C;stroke:#FFFFFF;stroke-width:5;stroke-miterlimit:10;}
	.st7{fill:#043687;stroke:#FFFFFF;stroke-width:5;stroke-miterlimit:10;}
	.st8{fill:#719FEB;stroke:#FFFFFF;stroke-width:5;stroke-miterlimit:10;}
	.st9{display:none;fill:#719FEB;stroke:#FFFFFF;stroke-width:5;stroke-miterlimit:10;}
</style>
<g transform="translate(85,185)">
	<g>
		<g transform="translate(0,0)">
			<path class="st0" d="M0,0h550v350H0V0z"/>
			<g>
				<g>
					<path class="st1" d="M275,15c28.1,0,55.7,7.4,80,21.4L275,175V15z"/>
					<path class="st1" d="M325.4,87.8c15.3,8.8,28,21.6,36.9,36.9L275,175L325.4,87.8z"/>
					<path class="st1" d="M382.8,112.7c10.9,18.9,16.7,40.4,16.7,62.3H275L382.8,112.7z"/>
					<path class="st1" d="M375,175c0,17.6-4.6,34.8-13.4,50L275,175H375z"/>
					<path class="st1" d="M423.6,260.8c-15.1,26.1-36.7,47.8-62.8,62.8L275,175L423.6,260.8z"/>
					<path class="st1" d="M374.3,347.1c-30.2,17.4-64.5,26.6-99.3,26.6V175L374.3,347.1z"/>
					<path class="st1" d="M275,364.7c-33.3,0-66-8.8-94.8-25.4L275,175V364.7z"/>
					<path class="st1" d="M184.4,332c-27.6-15.9-50.4-38.8-66.4-66.4L275,175L184.4,332z"/>
					<path class="st1" d="M137.6,254.3c-13.9-24.1-21.3-51.5-21.3-79.3H275L137.6,254.3z"/>
					<path class="st1" d="M120.8,175c0-27.1,7.1-53.7,20.7-77.1L275,175H120.8z"/>
					<path class="st1" d="M170.5,114.7c10.6-18.3,25.8-33.6,44.2-44.2L275,175L170.5,114.7z"/>
					<path class="st1" d="M205,53.8C226.3,41.5,250.4,35,275,35v140L205,53.8z"/>
				</g>
				<g>
					<path class="st2" d="M275,130.5c7.8,0,15.5,2.1,22.3,6L275,175V130.5z"/>
					<path class="st2" d="M313.6,108.2c11.7,6.8,21.5,16.5,28.2,28.2L275,175L313.6,108.2z"/>
					<path class="st2" d="M374.5,117.6c10.1,17.5,15.4,37.3,15.4,57.4H275L374.5,117.6z"/>
					<path class="st2" d="M413,175c0,24.2-6.4,48-18.5,69L275,175H413z"/>
					<path class="st2" d="M416.4,256.6c-14.3,24.8-34.9,45.4-59.7,59.7L275,175L416.4,256.6z"/>
					<path class="st2" d="M364.3,329.7c-27.2,15.7-58,23.9-89.3,23.9V175L364.3,329.7z"/>
					<path class="st2" d="M275,376.3c-35.3,0-70-9.3-100.6-27L275,175V376.3z"/>
					<path class="st2" d="M184.4,332c-27.6-15.9-50.4-38.8-66.4-66.4L275,175L184.4,332z"/>
					<path class="st2" d="M147.4,248.7c-12.9-22.4-19.7-47.8-19.7-73.7H275L147.4,248.7z"/>
					<path class="st2" d="M183.4,175c0-16.1,4.2-31.9,12.3-45.8L275,175H183.4z"/>
					<path class="st2" d="M233.4,151c4.2-7.3,10.3-13.4,17.6-17.6l24,41.6L233.4,151z"/>
					<path class="st2" d="M258.2,145.9c5.1-2.9,10.9-4.5,16.8-4.5V175L258.2,145.9z"/>
				</g>
				<g>
					<path class="st3" d="M275,55c21.1,0,41.8,5.5,60,16.1l-30,52c-9.1-5.3-19.5-8-30-8V55z"/>
					<path class="st3" d="M335,71.1c18.2,10.5,33.4,25.7,43.9,43.9l-52,30c-5.3-9.1-12.8-16.7-22-22L335,71.1z"/>
					<path class="st3" d="M378.9,115c10.5,18.2,16.1,38.9,16.1,60h-60c0-10.5-2.8-20.9-8-30L378.9,115z"/>
					<path class="st3" d="M395,175c0,21.1-5.5,41.8-16.1,60l-52-30c5.3-9.1,8-19.5,8-30H395z"/>
					<path class="st3" d="M378.9,235c-10.5,18.2-25.7,33.4-43.9,43.9l-30-52c9.1-5.3,16.7-12.8,22-22L378.9,235z"/>
					<path class="st3" d="M335,278.9c-18.2,10.5-38.9,16.1-60,16.1v-60c10.5,0,20.9-2.8,30-8L335,278.9z"/>
					<path class="st3" d="M275,295c-21.1,0-41.8-5.5-60-16.1l30-52c9.1,5.3,19.5,8,30,8V295z"/>
					<path class="st3" d="M215,278.9c-18.2-10.5-33.4-25.7-43.9-43.9l52-30c5.3,9.1,12.8,16.7,22,22L215,278.9z"/>
					<path class="st3" d="M171.1,235c-10.5-18.2-16.1-38.9-16.1-60h60c0,10.5,2.8,20.9,8,30L171.1,235z"/>
					<path class="st3" d="M155,175c0-21.1,5.5-41.8,16.1-60l52,30c-5.3,9.1-8,19.5-8,30H155z"/>
					<path class="st3" d="M171.1,115c10.5-18.2,25.7-33.4,43.9-43.9l30,52c-9.1,5.3-16.7,12.8-22,22L171.1,115z"/>
					<path class="st3" d="M215,71.1C233.2,60.5,253.9,55,275,55v60c-10.5,0-20.9,2.8-30,8L215,71.1z"/>
				</g>
				<g>
					<path class="st3" d="M275-5c31.6,0,62.6,8.3,90,24.1l-30,52C316.8,60.5,296.1,55,275,55V-5z"/>
					<path class="st3" d="M365,19.1c27.4,15.8,50.1,38.5,65.9,65.9l-52,30c-10.5-18.2-25.7-33.4-43.9-43.9L365,19.1z"/>
					<path class="st3" d="M430.9,85c15.8,27.4,24.1,58.4,24.1,90h-60c0-21.1-5.5-41.8-16.1-60L430.9,85z"/>
					<path class="st3" d="M455,175c0,31.6-8.3,62.6-24.1,90l-52-30c10.5-18.2,16.1-38.9,16.1-60H455z"/>
					<path class="st3" d="M430.9,265c-15.8,27.4-38.5,50.1-65.9,65.9l-30-52c18.2-10.5,33.4-25.7,43.9-43.9L430.9,265z"/>
					<path class="st3" d="M365,330.9c-27.4,15.8-58.4,24.1-90,24.1v-60c21.1,0,41.8-5.5,60-16.1L365,330.9z"/>
					<path class="st3" d="M275,355c-31.6,0-62.6-8.3-90-24.1l30-52c18.2,10.5,38.9,16.1,60,16.1V355z"/>
					<path class="st3" d="M185,330.9c-27.4-15.8-50.1-38.5-65.9-65.9l52-30c10.5,18.2,25.7,33.4,43.9,43.9L185,330.9z"/>
					<path class="st3" d="M119.1,265C103.3,237.6,95,206.6,95,175h60c0,21.1,5.5,41.8,16.1,60L119.1,265z"/>
					<path class="st3" d="M95,175c0-31.6,8.3-62.6,24.1-90l52,30c-10.5,18.2-16.1,38.9-16.1,60H95z"/>
					<path class="st3" d="M119.1,85c15.8-27.4,38.5-50.1,65.9-65.9l30,52c-18.2,10.5-33.4,25.7-43.9,43.9L119.1,85z"/>
					<path class="st3" d="M185,19.1C212.4,3.3,243.4-5,275-5v60c-21.1,0-41.8,5.5-60,16.1L185,19.1z"/>
				</g>
				<g>
					<path class="st3" d="M275-65c42.1,0,83.5,11.1,120,32.2l-30,52C337.6,3.3,306.6-5,275-5V-65z"/>
					<path class="st3" d="M395-32.8c36.5,21.1,66.8,51.4,87.8,87.8l-52,30c-15.8-27.4-38.5-50.1-65.9-65.9L395-32.8z"/>
					<path class="st3" d="M482.8,55c21.1,36.5,32.2,77.9,32.2,120h-60c0-31.6-8.3-62.6-24.1-90L482.8,55z"/>
					<path class="st3" d="M515,175c0,42.1-11.1,83.5-32.2,120l-52-30c15.8-27.4,24.1-58.4,24.1-90H515z"/>
					<path class="st3" d="M482.8,295c-21.1,36.5-51.4,66.8-87.8,87.8l-30-52c27.4-15.8,50.1-38.5,65.9-65.9L482.8,295z"/>
					<path class="st3" d="M395,382.8c-36.5,21.1-77.9,32.2-120,32.2v-60c31.6,0,62.6-8.3,90-24.1L395,382.8z"/>
					<path class="st3" d="M275,415c-42.1,0-83.5-11.1-120-32.2l30-52c27.4,15.8,58.4,24.1,90,24.1V415z"/>
					<path class="st3" d="M155,382.8c-36.5-21.1-66.8-51.4-87.8-87.8l52-30c15.8,27.4,38.5,50.1,65.9,65.9L155,382.8z"/>
					<path class="st3" d="M67.2,295C46.1,258.5,35,217.1,35,175h60c0,31.6,8.3,62.6,24.1,90L67.2,295z"/>
					<path class="st3" d="M35,175c0-42.1,11.1-83.5,32.2-120l52,30C103.3,112.4,95,143.4,95,175H35z"/>
					<path class="st3" d="M67.2,55c21.1-36.5,51.4-66.8,87.8-87.8l30,52c-27.4,15.8-50.1,38.5-65.9,65.9L67.2,55z"/>
					<path class="st3" d="M155-32.8C191.5-53.9,232.9-65,275-65v60c-31.6,0-62.6,8.3-90,24.1L155-32.8z"/>
				</g>
				<g>
					<path class="st4" d="M275-175c61.4,0,121.8,16.2,175,46.9l-37.5,65C370.7-87.3,323.3-100,275-100V-175z"/>
					<path class="st5" d="M450-128.1C503.2-97.4,547.4-53.2,578.1,0l-65,37.5C489-4.3,454.3-39,412.5-63.2L450-128.1z"/>
					<path class="st6" d="M578.1,0C608.8,53.2,625,113.6,625,175h-75c0-48.3-12.7-95.7-36.8-137.5L578.1,0z"/>
					<path class="st6" d="M625,175c0,61.4-16.2,121.8-46.9,175l-65-37.5C537.3,270.7,550,223.3,550,175H625z"/>
					<path class="st5" d="M578.1,350c-30.7,53.2-74.9,97.4-128.1,128.1l-37.5-65c41.8-24.1,76.5-58.9,100.7-100.7L578.1,350z"/>
					<path class="st5" d="M450,478.1C396.8,508.8,336.4,525,275,525v-75c48.3,0,95.7-12.7,137.5-36.8L450,478.1z"/>
					<path class="st6" d="M275,525c-61.4,0-121.8-16.2-175-46.9l37.5-65C179.3,437.3,226.7,450,275,450V525z"/>
					<path class="st6" d="M100,478.1C46.8,447.4,2.6,403.2-28.1,350l65-37.5C61,354.3,95.7,389,137.5,413.2L100,478.1z"/>
					<path class="st5" d="M-28.1,350C-58.8,296.8-75,236.4-75,175H0c0,48.3,12.7,95.7,36.8,137.5L-28.1,350z"/>
					<path class="st5" d="M-75,175c0-61.4,16.2-121.8,46.9-175l65,37.5C12.7,79.3,0,126.7,0,175H-75z"/>
					<path class="st7" d="M-28.1,0C2.6-53.2,46.8-97.4,100-128.1l37.5,65C95.7-39,61-4.3,36.8,37.5L-28.1,0z"/>
					<path class="st8" d="M100-128.1c53.2-30.7,113.6-46.9,175-46.9v75c-48.3,0-95.7,12.7-137.5,36.8L100-128.1z"/>
				</g>
			</g>
			<path class="st9" d="M0,0"/>
		</g>
	</g>
</g>
</svg>
