<svg xmlns="http://www.w3.org/2000/svg" xmlns:xlink="http://www.w3.org/1999/xlink" version="1.1" class="marks" width="710" height="710" viewBox="0 0 710 710"><rect width="710" height="710" fill="white"/><g fill="none" stroke-miterlimit="10" transform="translate(80,180)"><g class="mark-group role-frame root" role="graphics-object" aria-roledescription="group mark container"><g transform="translate(0,0)"><path class="background" aria-hidden="true" d="M0,0h550v350h-550Z"/><g><g class="mark-text role-mark layer_0_marks" role="graphics-object" aria-roledescription="text mark container"><text aria-label="monthnum: 0; month: Jan" role="graphics-symbol" aria-roledescription="text mark" text-anchor="middle" transform="translate(355.2339039817814,-109.4370061496112)" font-family="sans-serif" font-size="50px" fill="black">Jan</text><text aria-label="monthnum: 1; month: Feb" role="graphics-symbol" aria-roledescription="text mark" text-anchor="middle" transform="translate(494.20310216782974,-29.203102167829712)" font-family="sans-serif" font-size="50px" fill="black">Feb</text><text aria-label="monthnum: 2; month: Mar" role="graphics-symbol" aria-roledescription="text mark" text-anchor="middle" transform="translate(574.4370061496111,109.76609601821852)" font-family="sans-serif" font-size="50px" fill="black">Mar</text><text aria-label="monthnum: 3; month: Apr" role="graphics-symbol" aria-roledescription="text mark" text-anchor="middle" transform="translate(574.4370061496112,270.2339039817814)" font-family="sans-serif" font-size="50px" fill="black">Apr</text><text aria-label="monthnum: 4; month: May" role="graphics-symbol" aria-roledescription="text mark" text-anchor="middle" transform="translate(494.20310216782974,409.2031021678297)" font-family="sans-serif" font-size="50px" fill="black">May</text><text aria-label="monthnum: 5; month: Jun" role="graphics-symbol" aria-roledescription="text mark" text-anchor="middle" transform="translate(355.2339039817815,489.43700614961114)" font-family="sans-serif" font-size="50px" fill="black">Jun</text><text aria-label="monthnum: 6; month: Jul" role="graphics-symbol" aria-roledescription="text mark" text-anchor="middle" transform="translate(194.76609601821855,489.4370061496112)" font-family="sans-serif" font-size="50px" fill="black">Jul</text><text aria-label="monthnum: 7; month: Aug" role="graphics-symbol" aria-roledescription="text mark" text-anchor="middle" transform="translate(55.79689783217029,409.20310216782974)" font-family="sans-serif" font-size="50px" fill="black">Aug</text><text aria-label="monthnum: 8; month: Sep" role="graphics-symbol" aria-roledescription="text mark" text-anchor="middle" transform="translate(-24.437006149611136,270.2339039817816)" font-family="sans-serif" font-size="50px" fill="black">Sep</text><text aria-label="monthnum: 9; month: Oct" role="graphics-symbol" aria-roledescription="text mark" text-anchor="middle" transform="translate(-24.437006149611193,109.76609601821869)" font-family="sans-serif" font-size="50px" fill="black">Oct</text><text aria-label="monthnum: 10; month: Nov" role="graphics-symbol" aria-roledescription="text mark" text-anchor="middle" transform="translate(55.79689783217003,-29.203102167829513)" font-family="sans-serif" font-size="50px" fill="black">Nov</text><text aria-label="monthnum: 11; month: Dec" role="graphics-symbol" aria-roledescription="text mark" text-anchor="middle" transform="translate(194.76609601821835,-109.43700614961114)" font-family="sans-serif" font-size="50px" fill="black">Dec</text></g><g class="mark-arc role-mark layer_1_marks" role="graphics-object" aria-roledescription="arc mark container"><path aria-label="monthnum: 0" role="graphics-symbol" aria-roledescription="arc mark" transform="translate(275,175)" d="M2.1431318985078682e-14,-350A350,350,0,0,1,174.99999999999997,-303.10889132455355L137.49999999999997,-238.15698604072065A275,275,0,0,0,1.6838893488276108e-14,-275Z"/><path aria-label="monthnum: 1" role="graphics-symbol" aria-roledescription="arc mark" transform="translate(275,175)" d="M174.99999999999997,-303.10889132455355A350,350,0,0,1,303.1088913245535,-175L238.15698604072062,-137.5A275,275,0,0,0,137.49999999999997,-238.15698604072065Z"/><path aria-label="monthnum: 2" role="graphics-symbol" aria-roledescription="arc mark" transform="translate(275,175)" d="M303.1088913245535,-175A350,350,0,0,1,350,0L275,0A275,275,0,0,0,238.15698604072062,-137.5Z"/><path aria-label="monthnum: 3" role="graphics-symbol" aria-roledescription="arc mark" transform="translate(275,175)" d="M350,0A350,350,0,0,1,303.10889132455355,174.99999999999994L238.15698604072065,137.49999999999994A275,275,0,0,0,275,0Z"/><path aria-label="monthnum: 4" role="graphics-symbol" aria-roledescription="arc mark" transform="translate(275,175)" d="M303.10889132455355,174.99999999999994A350,350,0,0,1,175.0000000000001,303.1088913245535L137.50000000000009,238.1569860407206A275,275,0,0,0,238.15698604072065,137.49999999999994Z"/><path aria-label="monthnum: 5" role="graphics-symbol" aria-roledescription="arc mark" transform="translate(275,175)" d="M175.0000000000001,303.1088913245535A350,350,0,0,1,1.768625424326006e-13,350L1.3896342619704334e-13,275A275,275,0,0,0,137.50000000000009,238.1569860407206Z"/><path aria-label="monthnum: 6" role="graphics-symbol" aria-roledescription="arc mark" transform="translate(275,175)" d="M2.1431318985078682e-14,350A350,350,0,0,1,-174.99999999999991,303.1088913245536L-137.49999999999994,238.15698604072068A275,275,0,0,0,1.6838893488276108e-14,275Z"/><path aria-label="monthnum: 7" role="graphics-symbol" aria-roledescription="arc mark" transform="translate(275,175)" d="M-174.99999999999991,303.1088913245536A350,350,0,0,1,-303.1088913245535,175.0000000000001L-238.1569860407206,137.50000000000009A275,275,0,0,0,-137.49999999999994,238.15698604072068Z"/><path aria-label="monthnum: 8" role="graphics-symbol" aria-roledescription="arc mark" transform="translate(275,175)" d="M-303.1088913245535,175.0000000000001A350,350,0,0,1,-350,4.2862637970157365e-14L-275,3.3677786976552216e-14A275,275,0,0,0,-238.1569860407206,137.50000000000009Z"/><path aria-label="monthnum: 9" role="graphics-symbol" aria-roledescription="arc mark" transform="translate(275,175)" d="M-350,4.2862637970157365e-14A350,350,0,0,1,-303.1088913245535,-175.00000000000003L-238.15698604072062,-137.50000000000003A275,275,0,0,0,-275,3.3677786976552216e-14Z"/><path aria-label="monthnum: 10" role="graphics-symbol" aria-roledescription="arc mark" transform="translate(275,175)" d="M-303.10889132455367,-174.99999999999977A350,350,0,0,1,-175.00000000000014,-303.10889132455344L-137.5000000000001,-238.15698604072054A275,275,0,0,0,-238.15698604072074,-137.49999999999983Z"/><path aria-label="monthnum: 11" role="graphics-symbol" aria-roledescription="arc mark" transform="translate(275,175)" d="M-175.00000000000014,-303.10889132455344A350,350,0,0,1,-6.429395695523604e-14,-350L-5.051668046482832e-14,-275A275,275,0,0,0,-137.5000000000001,-238.15698604072054Z"/></g></g><path class="foreground" aria-hidden="true" d="" display="none"/></g></g></g></svg>